<?xml version="1.0" standalone="no"?><!DOCTYPE svg PUBLIC "-//W3C//DTD SVG 1.1//EN" "http://www.w3.org/Graphics/SVG/1.1/DTD/svg11.dtd"><svg class="icon" height="512" viewBox="0 0 1024 1024" version="1.1" xmlns="http://www.w3.org/2000/svg"><path d="M444.928 115.712c-13.312-13.312-32.256-22.016-52.736-22.016H163.84c-20.48 0-39.424 8.704-53.248 22.016C97.28 129.536 88.576 148.48 88.576 168.96v228.352c0 20.48 8.704 39.424 22.016 53.248 13.824 13.824 32.256 22.016 53.248 22.016h228.352c20.48 0 39.424-8.704 52.736-22.016 13.824-13.824 22.016-32.256 22.016-52.736V168.96c0-20.48-8.704-39.424-22.016-53.248zM409.6 414.208c-7.168 7.168-16.896 11.264-27.136 11.264H174.08c-10.752 0-20.48-4.608-27.648-11.264-7.168-7.168-11.264-16.896-11.264-27.136V179.2c0-10.752 4.608-20.48 11.264-27.648 7.168-7.168 16.896-11.264 27.136-11.264h207.872c10.752 0 20.48 4.608 27.136 11.264 7.168 7.168 11.264 16.896 11.264 27.136l1.024 208.384c0 10.752-4.096 20.48-11.264 27.136zM905.216 115.712c-13.824-13.824-32.256-22.016-53.248-22.016h-228.352c-20.48 0-39.424 8.704-53.248 22.016-13.824 13.824-22.016 32.256-22.016 53.248v228.352c0 20.48 8.704 39.424 22.016 53.248 13.824 13.312 32.256 22.016 53.248 22.016h228.352c20.48 0 39.424-8.704 53.248-22.016 13.824-13.824 22.016-32.256 22.016-53.248V168.96c0-20.48-8.704-39.424-22.016-53.248z m-25.6 270.848c0 10.752-4.096 20.48-11.264 27.136-7.168 7.168-16.896 11.264-27.136 11.264h-207.872c-10.752 0-20.48-4.608-27.648-11.264-7.168-7.168-11.264-16.896-11.264-27.136V179.2h0.512c0-10.752 4.608-20.48 11.264-27.648 7.168-7.168 16.896-11.264 27.136-11.264h207.872c10.752 0 20.48 4.608 27.136 11.264 7.168 7.168 11.264 16.896 11.264 27.136v207.872zM450.56 571.904c-13.824-13.312-32.768-22.016-53.248-22.016H163.84c-20.48 0-39.424 8.704-53.248 22.016-13.824 13.824-22.016 32.256-22.016 53.248v228.352c0 20.48 8.704 39.424 22.016 53.248 13.824 13.824 32.256 22.016 53.248 22.016h233.472c20.48 0 39.424-8.704 53.248-22.016 13.824-13.824 22.016-32.256 22.016-53.248v-228.352c0-20.48-8.704-39.424-22.016-53.248z m-24.576 271.36c0 10.752-4.608 20.48-11.264 27.648-7.168 7.168-16.896 11.264-27.136 11.264H174.592c-10.752 0-20.48-4.608-27.136-11.264-7.168-7.168-11.264-16.896-11.264-27.136v-207.872c0-10.752 4.096-20.48 11.264-27.136 7.168-7.168 16.896-11.264 27.136-11.264h212.992c10.752 0 20.48 4.608 27.136 11.264 7.168 7.168 11.264 16.896 11.264 27.136v207.36zM934.912 891.904l-44.544-42.496c22.016-29.184 30.72-59.392 32.768-98.304 2.56-51.712-15.872-99.84-48.128-135.68-32.256-35.84-78.336-59.392-130.048-61.952s-99.84 15.872-135.68 48.128-59.392 78.336-61.952 130.048c-2.56 51.712 15.872 99.84 48.128 135.68 32.256 35.84 78.336 59.392 130.048 61.952 51.712 2.56 94.208-10.752 130.048-42.496l47.616 44.544c8.192 6.144 25.6 8.704 35.84-3.584 8.192-10.24 4.608-28.16-4.096-35.84z m-56.32-143.36c-2.048 39.424-19.968 74.24-47.104 98.304-27.136 24.064-64 38.4-102.912 36.864-39.424-2.048-74.24-19.968-98.816-47.104-24.064-27.136-38.4-64-36.352-102.912 1.536-38.912 19.456-73.728 46.592-98.304 27.136-24.064 64-38.4 103.424-36.864 39.424 2.048 74.24 19.968 98.816 47.104 24.064 27.136 38.4 63.488 36.352 102.912z" fill="" /></svg>